<svg width="502" height="502" xmlns="http://www.w3.org/2000/svg" xmlns:xlink="http://www.w3.org/1999/xlink" overflow="hidden"><defs><clipPath id="clip0"><rect x="389" y="109" width="502" height="502"/></clipPath></defs><g clip-path="url(#clip0)" transform="translate(-389 -109)"><path d="M639.962 109C501.319 109 388.925 221.394 388.925 360.037 388.925 498.681 501.319 611.075 639.962 611.075 778.606 611.075 891 498.681 891 360.037 891 221.394 778.606 109 639.962 109ZM807.595 527.595 726.661 505.135C646.768 552.729 543.418 526.547 495.824 446.661 448.229 366.768 474.411 263.418 554.304 215.824 634.19 168.229 737.54 194.404 785.135 274.297 817.014 327.806 816.752 394.53 784.46 447.784Z" fill="#FFFFFF"/><path d="M639.962 248.108C578.143 248.16 528.078 298.315 528.13 360.127 528.145 380.469 533.7 400.422 544.204 417.837L528.856 470.77 582.238 455.796C635.163 487.735 703.961 470.717 735.9 417.792 767.84 364.867 750.829 296.069 697.896 264.13 680.414 253.581 660.379 248.01 639.962 248.033ZM639.962 417.313C608.293 417.313 582.613 391.64 582.613 359.963 582.613 328.293 608.293 302.613 639.962 302.613 671.64 302.613 697.312 328.293 697.312 359.963 697.312 359.985 697.312 360.015 697.312 360.037 697.268 391.685 671.61 417.313 639.962 417.313Z" fill="#FFFFFF"/></g></svg>